<svg xmlns="http://www.w3.org/2000/svg" width="1080" height="1920" viewBox="0 0 1080 1920" preserveAspectRatio="xMidYMid slice">
  <defs>
    <linearGradient id="bg" x1="0" y1="0" x2="1" y2="1">
      <stop offset="0" stop-color="#202433"/>
      <stop offset="0.45" stop-color="#30364a"/>
      <stop offset="1" stop-color="#1c2030"/>
    </linearGradient>
    <linearGradient id="hero" x1="0" y1="0" x2="0" y2="1">
      <stop offset="0" stop-color="#3b4155"/>
      <stop offset="1" stop-color="#313748"/>
    </linearGradient>
    <linearGradient id="blueCard" x1="0" y1="0" x2="1" y2="1">
      <stop offset="0" stop-color="#4875ff"/>
      <stop offset="1" stop-color="#2565f6"/>
    </linearGradient>
    <linearGradient id="purpleCard" x1="0" y1="0" x2="1" y2="1">
      <stop offset="0" stop-color="#786cf8"/>
      <stop offset="1" stop-color="#6752f0"/>
    </linearGradient>
    <radialGradient id="blueGlow" cx="50%" cy="50%" r="50%">
      <stop offset="0" stop-color="#4b79ff" stop-opacity="0.52"/>
      <stop offset="1" stop-color="#4b79ff" stop-opacity="0"/>
    </radialGradient>
    <radialGradient id="purpleGlow" cx="50%" cy="50%" r="50%">
      <stop offset="0" stop-color="#7d72ff" stop-opacity="0.46"/>
      <stop offset="1" stop-color="#7d72ff" stop-opacity="0"/>
    </radialGradient>
    <filter id="softShadow" x="-30%" y="-30%" width="160%" height="160%">
      <feDropShadow dx="0" dy="18" stdDeviation="22" flood-color="#111522" flood-opacity="0.36"/>
    </filter>
    <pattern id="grid" width="48" height="48" patternUnits="userSpaceOnUse">
      <path d="M 48 0 L 0 0 0 48" fill="none" stroke="#566078" stroke-width="1" opacity="0.12"/>
    </pattern>
  </defs>
  <rect width="1080" height="1920" fill="url(#bg)"/>
  <rect width="1080" height="206" fill="#242837"/>
  <rect y="206" width="1080" height="560" fill="url(#hero)"/>
  <rect y="766" width="1080" height="1154" fill="#232736"/>
  <rect width="1080" height="1920" fill="url(#grid)" opacity="0.32"/>
  <circle cx="105" cy="140" r="46" fill="#f8ffff" opacity="0.98"/>
  <path d="M84 136 C112 82 178 96 185 151 C160 129 134 133 117 166 C105 150 96 141 84 136 Z" fill="#78d7f0"/>
  <path d="M96 152 C122 108 171 117 178 154 C154 140 134 145 118 173 C109 165 102 158 96 152 Z" fill="#25364a"/>
  <rect x="928" y="136" width="82" height="8" rx="4" fill="#ffffff" opacity="0.75"/>
  <rect x="928" y="166" width="82" height="8" rx="4" fill="#ffffff" opacity="0.75"/>
  <g opacity="0.18">
    <path d="M110 518 H705" stroke="#ffffff" stroke-width="4"/>
    <path d="M110 592 H570" stroke="#ffffff" stroke-width="4"/>
  </g>
  <g opacity="0.22">
    <path d="M0 1378 C180 1258 318 1276 486 1360 C663 1449 824 1444 1080 1286" fill="none" stroke="#50668c" stroke-width="3"/>
    <path d="M0 1452 C183 1342 342 1345 523 1427 C717 1515 888 1486 1080 1362" fill="none" stroke="#61749a" stroke-width="2"/>
    <path d="M0 1536 C221 1422 397 1433 560 1518 C717 1599 882 1598 1080 1491" fill="none" stroke="#4d5e82" stroke-width="2"/>
  </g>
  <ellipse cx="228" cy="1270" rx="230" ry="230" fill="url(#blueGlow)"/>
  <ellipse cx="848" cy="1318" rx="260" ry="260" fill="url(#purpleGlow)"/>
  <g filter="url(#softShadow)">
    <rect x="114" y="1126" width="300" height="300" rx="12" fill="url(#blueCard)"/>
    <rect x="666" y="1126" width="300" height="300" rx="12" fill="url(#purpleCard)"/>
  </g>
  <g opacity="0.24">
    <circle cx="264" cy="1276" r="116" fill="#ffffff"/>
    <path d="M148 1270 C202 1190 294 1186 352 1244 C281 1215 217 1231 176 1304 C166 1295 156 1284 148 1270 Z" fill="#1d43cc"/>
    <path d="M176 1307 C229 1224 322 1230 370 1294 C306 1258 238 1274 195 1342 C188 1331 181 1320 176 1307 Z" fill="#1d43cc"/>
    <circle cx="816" cy="1276" r="116" fill="#ffffff"/>
    <path d="M700 1270 C754 1190 846 1186 904 1244 C833 1215 769 1231 728 1304 C718 1295 708 1284 700 1270 Z" fill="#4937d3"/>
    <path d="M728 1307 C781 1224 874 1230 922 1294 C858 1258 790 1274 747 1342 C740 1331 733 1320 728 1307 Z" fill="#4937d3"/>
  </g>
  <g opacity="0.16">
    <path d="M140 1700 H434" stroke="#ffffff" stroke-width="2"/>
    <path d="M646 1700 H940" stroke="#ffffff" stroke-width="2"/>
    <rect x="140" y="1630" width="294" height="12" rx="6" fill="#ffffff"/>
    <rect x="646" y="1630" width="294" height="12" rx="6" fill="#ffffff"/>
    <rect x="140" y="1670" width="212" height="10" rx="5" fill="#ffffff"/>
    <rect x="646" y="1670" width="212" height="10" rx="5" fill="#ffffff"/>
  </g>
  <rect x="0" y="0" width="1080" height="1920" fill="#121624" opacity="0.08"/>
</svg>
